  0
SECTION
  2
HEADER
  9
$ACADVER
  1
AC1015
  9
$ACADMAINTVER
 70
     6
  9
$DWGCODEPAGE
  3
ANSI_1252
  9
$INSBASE
 10
0.0
 20
0.0
 30
0.0
  9
$EXTMIN
 10
0.0
 20
0.0
 30
0.0
  9
$EXTMAX
 10
11.0
 20
8.5
 30
0.0
  9
$LIMMIN
 10
0.0
 20
0.0
  9
$LIMMAX
 10
11.0
 20
8.5
  9
$ORTHOMODE
 70
     0
  9
$REGENMODE
 70
     1
  9
$FILLMODE
 70
     1
  9
$QTEXTMODE
 70
     0
  9
$MIRRTEXT
 70
     1
  9
$LTSCALE
 40
1.0
  9
$ATTMODE
 70
     1
  9
$TEXTSIZE
 40
0.1377952756
  9
$TRACEWID
 40
0.05
  9
$TEXTSTYLE
  7
Standard
  9
$CLAYER
  8
0
  9
$CELTYPE
  6
ByLayer
  9
$CECOLOR
 62
   256
  9
$CELTSCALE
 40
1.0
  9
$DISPSILH
 70
     0
  9
$DIMSCALE
 40
1.0
  9
$DIMASZ
 40
0.13
  9
$DIMEXO
 40
0.0393700787
  9
$DIMDLI
 40
0.38
  9
$DIMRND
 40
0.0
  9
$DIMDLE
 40
0.0
  9
$DIMEXE
 40
0.0393700787
  9
$DIMTP
 40
0.0
  9
$DIMTM
 40
0.0
  9
$DIMTXT
 40
0.1377952756
  9
$DIMCEN
 40
0.09
  9
$DIMTSZ
 40
0.0
  9
$DIMTOL
 70
     0
  9
$DIMLIM
 70
     0
  9
$DIMTIH
 70
     1
  9
$DIMTOH
 70
     1
  9
$DIMSE1
 70
     0
  9
$DIMSE2
 70
     0
  9
$DIMTAD
 70
     1
  9
$DIMZIN
 70
     0
  9
$DIMBLK
  1

  9
$DIMASO
 70
     1
  9
$DIMSHO
 70
     1
  9
$DIMPOST
  1

  9
$DIMAPOST
  1

  9
$DIMALT
 70
     0
  9
$DIMALTD
 70
     2
  9
$DIMALTF
 40
25.4
  9
$DIMLFAC
 40
1.0
  9
$DIMTOFL
 70
     0
  9
$DIMTVP
 40
0.0
  9
$DIMTIX
 70
     0
  9
$DIMSOXD
 70
     0
  9
$DIMSAH
 70
     0
  9
$DIMBLK1
  1

  9
$DIMBLK2
  1

  9
$DIMSTYLE
  2
Standard
  9
$DIMCLRD
 70
     0
  9
$DIMCLRE
 70
     0
  9
$DIMCLRT
 70
     0
  9
$DIMTFAC
 40
1.0
  9
$DIMGAP
 40
0.06
  9
$DIMJUST
 70
     0
  9
$DIMSD1
 70
     0
  9
$DIMSD2
 70
     0
  9
$DIMTOLJ
 70
     1
  9
$DIMTZIN
 70
     0
  9
$DIMALTZ
 70
     0
  9
$DIMALTTZ
 70
     0
  9
$DIMUPT
 70
     0
  9
$DIMDEC
 70
     2
  9
$DIMTDEC
 70
     2
  9
$DIMALTU
 70
     2
  9
$DIMALTTD
 70
     2
  9
$DIMTXSTY
  7
Standard
  9
$DIMAUNIT
 70
     0
  9
$DIMADEC
 70
     2
  9
$DIMALTRND
 40
0.0
  9
$DIMAZIN
 70
     0
  9
$DIMDSEP
 70
    46
  9
$DIMATFIT
 70
     3
  9
$DIMFRAC
 70
     0
  9
$DIMLDRBLK
  1

  9
$DIMLUNIT
 70
     2
  9
$DIMLWD
 70
    -2
  9
$DIMLWE
 70
    -2
  9
$DIMTMOVE
 70
     0
  9
$LUNITS
 70
     2
  9
$LUPREC
 70
     2
  9
$SKETCHINC
 40
0.1
  9
$FILLETRAD
 40
0.5
  9
$AUNITS
 70
     0
  9
$AUPREC
 70
     2
  9
$MENU
  1
.
  9
$ELEVATION
 40
0.0
  9
$PELEVATION
 40
0.0
  9
$THICKNESS
 40
0.0
  9
$LIMCHECK
 70
     0
  9
$CHAMFERA
 40
0.0
  9
$CHAMFERB
 40
0.0
  9
$CHAMFERC
 40
0.0
  9
$CHAMFERD
 40
0.0
  9
$SKPOLY
 70
     0
  9
$TDCREATE
 40
2457729.91138934
  9
$TDUCREATE
 40
2457729.869722674
  9
$TDUPDATE
 40
2457729.911389398
  9
$TDUUPDATE
 40
2457729.869722731
  9
$TDINDWG
 40
0.0000000116
  9
$TDUSRTIMER
 40
0.0000000116
  9
$USRTIMER
 70
     1
  9
$ANGBASE
 50
0.0
  9
$ANGDIR
 70
     0
  9
$PDMODE
 70
     0
  9
$PDSIZE
 40
-1.0
  9
$PLINEWID
 40
0.0
  9
$SPLFRAME
 70
     0
  9
$SPLINETYPE
 70
     6
  9
$SPLINESEGS
 70
     8
  9
$HANDSEED
  5
D4
  9
$SURFTAB1
 70
     6
  9
$SURFTAB2
 70
     6
  9
$SURFTYPE
 70
     6
  9
$SURFU
 70
     6
  9
$SURFV
 70
     6
  9
$UCSBASE
  2

  9
$UCSNAME
  2

  9
$UCSORG
 10
0.0
 20
0.0
 30
0.0
  9
$UCSXDIR
 10
1.0
 20
0.0
 30
0.0
  9
$UCSYDIR
 10
0.0
 20
1.0
 30
0.0
  9
$UCSORTHOREF
  2

  9
$UCSORTHOVIEW
 70
     0
  9
$UCSORGTOP
 10
0.0
 20
0.0
 30
0.0
  9
$UCSORGBOTTOM
 10
0.0
 20
0.0
 30
0.0
  9
$UCSORGLEFT
 10
0.0
 20
0.0
 30
0.0
  9
$UCSORGRIGHT
 10
0.0
 20
0.0
 30
0.0
  9
$UCSORGFRONT
 10
0.0
 20
0.0
 30
0.0
  9
$UCSORGBACK
 10
0.0
 20
0.0
 30
0.0
  9
$PUCSBASE
  2

  9
$PUCSNAME
  2

  9
$PUCSORG
 10
0.0
 20
0.0
 30
0.0
  9
$PUCSXDIR
 10
1.0
 20
0.0
 30
0.0
  9
$PUCSYDIR
 10
0.0
 20
1.0
 30
0.0
  9
$PUCSORTHOREF
  2

  9
$PUCSORTHOVIEW
 70
     0
  9
$PUCSORGTOP
 10
0.0
 20
0.0
 30
0.0
  9
$PUCSORGBOTTOM
 10
0.0
 20
0.0
 30
0.0
  9
$PUCSORGLEFT
 10
0.0
 20
0.0
 30
0.0
  9
$PUCSORGRIGHT
 10
0.0
 20
0.0
 30
0.0
  9
$PUCSORGFRONT
 10
0.0
 20
0.0
 30
0.0
  9
$PUCSORGBACK
 10
0.0
 20
0.0
 30
0.0
  9
$USERI1
 70
     0
  9
$USERI2
 70
     0
  9
$USERI3
 70
     0
  9
$USERI4
 70
     0
  9
$USERI5
 70
     0
  9
$USERR1
 40
0.0
  9
$USERR2
 40
0.0
  9
$USERR3
 40
0.0
  9
$USERR4
 40
0.0
  9
$USERR5
 40
0.0
  9
$WORLDVIEW
 70
     1
  9
$SHADEDGE
 70
     3
  9
$SHADEDIF
 70
    70
  9
$TILEMODE
 70
     1
  9
$MAXACTVP
 70
    64
  9
$PINSBASE
 10
0.0
 20
0.0
 30
0.0
  9
$PLIMCHECK
 70
     0
  9
$PEXTMIN
 10
1.0000000000E+20
 20
1.0000000000E+20
 30
1.0000000000E+20
  9
$PEXTMAX
 10
-1.0000000000E+20
 20
-1.0000000000E+20
 30
-1.0000000000E+20
  9
$PLIMMIN
 10
0.0
 20
0.0
  9
$PLIMMAX
 10
12.0
 20
9.0
  9
$UNITMODE
 70
     0
  9
$VISRETAIN
 70
     1
  9
$PLINEGEN
 70
     0
  9
$PSLTSCALE
 70
     1
  9
$TREEDEPTH
 70
  3020
  9
$CMLSTYLE
  2
Standard
  9
$CMLJUST
 70
     0
  9
$CMLSCALE
 40
1.0
  9
$PROXYGRAPHICS
 70
     1
  9
$MEASUREMENT
 70
     0
  9
$CELWEIGHT
370
    -1
  9
$ENDCAPS
280
     0
  9
$JOINSTYLE
280
     0
  9
$LWDISPLAY
290
     1
  9
$INSUNITS
 70
     1
  9
$HYPERLINKBASE
  1

  9
$STYLESHEET
  1

  9
$XEDIT
290
     1
  9
$CEPSNTYPE
380
     0
  9
$PSTYLEMODE
290
     1
  9
$FINGERPRINTGUID
  2
{B06561F9-0DD0-4821-8A9E-51B3907A4838}
  9
$VERSIONGUID
  2
{FAEB1C32-E019-11D5-929B-00C0DF256EC4}
  9
$EXTNAMES
290
     1
  9
$PSVPSCALE
 40
0.0
  9
$OLESTARTUP
290
     0
  0
ENDSEC
  0
SECTION
  2
CLASSES
  0
CLASS
  1
ACDBDICTIONARYWDFLT
  2
AcDbDictionaryWithDefault
  3
ObjectDBX Classes
 90
        0
280
     0
281
     0
  0
CLASS
  1
VISUALSTYLE
  2
AcDbVisualStyle
  3
ObjectDBX Classes
 90
     4095
280
     0
281
     0
  0
CLASS
  1
MATERIAL
  2
AcDbMaterial
  3
ObjectDBX Classes
 90
     1153
280
     0
281
     0
  0
CLASS
  1
SCALE
  2
AcDbScale
  3
ObjectDBX Classes
 90
     1153
280
     0
281
     0
  0
CLASS
  1
TABLESTYLE
  2
AcDbTableStyle
  3
ObjectDBX Classes
 90
     4095
280
     0
281
     0
  0
CLASS
  1
MLEADERSTYLE
  2
AcDbMLeaderStyle
  3
ACDB_MLEADERSTYLE_CLASS
 90
     4095
280
     0
281
     0
  0
CLASS
  1
SUN
  2
AcDbSun
  3
SCENEOE
 90
     1153
280
     0
281
     0
  0
CLASS
  1
ACDBPLACEHOLDER
  2
AcDbPlaceHolder
  3
ObjectDBX Classes
 90
        0
280
     0
281
     0
  0
CLASS
  1
LAYOUT
  2
AcDbLayout
  3
ObjectDBX Classes
 90
        0
280
     0
281
     0
  0
ENDSEC
  0
SECTION
  2
TABLES
  0
TABLE
  2
VPORT
  5
8
330
0
100
AcDbSymbolTable
 70
     1
  0
VPORT
  5
29
330
8
100
AcDbSymbolTableRecord
100
AcDbViewportTableRecord
  2
*Active
 70
     0
 10
0.0
 20
0.0
 11
1.0
 21
1.0
 12
5.5
 22
4.25
 13
0.0
 23
0.0
 14
0.5
 24
0.5
 15
0.5
 25
0.5
 16
0.0
 26
0.0
 36
1.0
 17
0.0
 27
0.0
 37
0.0
 40
8.5
 41
1.2941176471
 42
50.0
 43
0.0
 44
0.0
 50
0.0
 51
0.0
 71
     0
 72
  2000
 73
     1
 74
     3
 75
     0
 76
     0
 77
     0
 78
     0
281
     0
 65
     1
110
0.0
120
0.0
130
0.0
111
1.0
121
0.0
131
0.0
112
0.0
122
1.0
132
0.0
 79
     0
146
0.0
  0
ENDTAB
  0
TABLE
  2
LTYPE
  5
5
330
0
100
AcDbSymbolTable
 70
     6
  0
LTYPE
  5
14
330
5
100
AcDbSymbolTableRecord
100
AcDbLinetypeTableRecord
  2
ByBlock
 70
     0
  3

 72
    65
 73
     0
 40
0.0
  0
LTYPE
  5
15
330
5
100
AcDbSymbolTableRecord
100
AcDbLinetypeTableRecord
  2
ByLayer
 70
     0
  3

 72
    65
 73
     0
 40
0.0
  0
LTYPE
  5
16
330
5
100
AcDbSymbolTableRecord
100
AcDbLinetypeTableRecord
  2
Continuous
 70
     0
  3
Solid line
 72
    65
 73
     0
 40
0.0
  0
LTYPE
  5
6E
330
5
100
AcDbSymbolTableRecord
100
AcDbLinetypeTableRecord
  2
HIDDEN
 70
     0
  3
Hidden __ __ __ __ __ __ __ __ __ __ __ __ __ __
 72
    65
 73
     2
 40
0.075
 49
0.05
 74
     0
 49
-0.025
 74
     0
  0
LTYPE
  5
6F
330
5
100
AcDbSymbolTableRecord
100
AcDbLinetypeTableRecord
  2
PHANTOM
 70
     0
  3
Phantom ______  __  __  ______  __  __  ______
 72
    65
 73
     6
 40
0.5
 49
0.25
 74
     0
 49
-0.05
 74
     0
 49
0.05
 74
     0
 49
-0.05
 74
     0
 49
0.05
 74
     0
 49
-0.05
 74
     0
  0
LTYPE
  5
70
330
5
100
AcDbSymbolTableRecord
100
AcDbLinetypeTableRecord
  2
CENTER
 70
     0
  3
Center ____ _ ____ _ ____ _ ____ _ ____ _ ____
 72
    65
 73
     4
 40
0.4
 49
0.25
 74
     0
 49
-0.05
 74
     0
 49
0.05
 74
     0
 49
-0.05
 74
     0
  0
LTYPE
  5
71
330
5
100
AcDbSymbolTableRecord
100
AcDbLinetypeTableRecord
  2
CENTERX2
 70
     0
  3
Center (2x) ________  __  ________  __  _____
 72
    65
 73
     4
 40
0.8
 49
0.5
 74
     0
 49
-0.1
 74
     0
 49
0.1
 74
     0
 49
-0.1
 74
     0
  0
LTYPE
  5
72
330
5
100
AcDbSymbolTableRecord
100
AcDbLinetypeTableRecord
  2
DOT2
 70
     0
  3
Dot (.5x) ........................................
 72
    65
 73
     2
 40
0.025
 49
0.0
 74
     0
 49
-0.025
 74
     0
  0
ENDTAB
  0
TABLE
  2
LAYER
  5
2
330
0
100
AcDbSymbolTable
 70
     2
  0
LAYER
  5
10
330
2
100
AcDbSymbolTableRecord
100
AcDbLayerTableRecord
  2
0
 70
     0
 62
     7
  6
Continuous
370
    -3
390
F
  0
LAYER
  5
73
330
2
100
AcDbSymbolTableRecord
100
AcDbLayerTableRecord
  2
FORMAT
 70
     0
 62
     7
  6
Continuous
370
    -3
390
F
  0
ENDTAB
  0
TABLE
  2
STYLE
  5
3
330
0
100
AcDbSymbolTable
 70
     1
  0
STYLE
  5
11
330
3
100
AcDbSymbolTableRecord
100
AcDbTextStyleTableRecord
  2
Standard
 70
     0
 40
0.0
 41
1.0
 50
0.0
 71
     0
 42
0.1377952756
  3
txt
  4

  0
ENDTAB
  0
TABLE
  2
VIEW
  5
6
330
0
100
AcDbSymbolTable
 70
     0
  0
ENDTAB
  0
TABLE
  2
UCS
  5
7
330
0
100
AcDbSymbolTable
 70
     0
  0
ENDTAB
  0
TABLE
  2
APPID
  5
9
330
0
100
AcDbSymbolTable
 70
     1
  0
APPID
  5
12
330
9
100
AcDbSymbolTableRecord
100
AcDbRegAppTableRecord
  2
ACAD
 70
     0
  0
ENDTAB
  0
TABLE
  2
DIMSTYLE
  5
A
330
0
100
AcDbSymbolTable
 70
     1
100
AcDbDimStyleTable
  0
DIMSTYLE
105
27
330
A
100
AcDbSymbolTableRecord
100
AcDbDimStyleTableRecord
  2
Standard
 70
     0
178
     0
340
11
  0
ENDTAB
  0
TABLE
  2
BLOCK_RECORD
  5
1
330
0
100
AcDbSymbolTable
 70
     3
  0
BLOCK_RECORD
  5
1F
330
1
100
AcDbSymbolTableRecord
100
AcDbBlockTableRecord
  2
*Model_Space
340
22
  0
BLOCK_RECORD
  5
1B
330
1
100
AcDbSymbolTableRecord
100
AcDbBlockTableRecord
  2
*Paper_Space
340
1E
  0
BLOCK_RECORD
  5
23
330
1
100
AcDbSymbolTableRecord
100
AcDbBlockTableRecord
  2
*Paper_Space0
340
26
  0
BLOCK_RECORD
  5
74
330
1
100
AcDbSymbolTableRecord
100
AcDbBlockTableRecord
  2
module_v5_pt1_decoupe
340
0
102
{BLKREFS
331
D2
102
}
  0
BLOCK_RECORD
  5
97
330
1
100
AcDbSymbolTableRecord
100
AcDbBlockTableRecord
  2
module_v5_pt2_decoupe
340
0
102
{BLKREFS
331
D3
102
}
  0
ENDTAB
  0
ENDSEC
  0
SECTION
  2
BLOCKS
  0
BLOCK
  5
20
330
1F
100
AcDbEntity
  8
0
100
AcDbBlockBegin
  2
*Model_Space
 70
     0
 10
0.0
 20
0.0
 30
0.0
  3
*Model_Space
  1

  0
ENDBLK
  5
21
330
1F
100
AcDbEntity
  8
0
100
AcDbBlockEnd
  0
BLOCK
  5
1C
330
1B
100
AcDbEntity
 67
     1
  8
0
100
AcDbBlockBegin
  2
*Paper_Space
 70
     0
 10
0.0
 20
0.0
 30
0.0
  3
*Paper_Space
  1

  0
ENDBLK
  5
1D
330
1B
100
AcDbEntity
 67
     1
  8
0
100
AcDbBlockEnd
  0
BLOCK
  5
24
330
23
100
AcDbEntity
  8
0
100
AcDbBlockBegin
  2
*Paper_Space0
 70
     0
 10
0.0
 20
0.0
 30
0.0
  3
*Paper_Space0
  1

  0
ENDBLK
  5
25
330
23
100
AcDbEntity
  8
0
100
AcDbBlockEnd
  0
BLOCK
  5
75
330
74
100
AcDbEntity
  8
0
100
AcDbBlockBegin
  2
module_v5_pt1_decoupe
 70
     0
 10
0.0
 20
0.0
 30
0.0
  3
module_v5_pt1_decoupe
  1

  0
CIRCLE
  5
77
330
74
100
AcDbEntity
  8
0
  6
Continuous
 62
   179
370
    15
100
AcDbCircle
 10
2.7299250226
 20
0.3543307087
 30
0.0
 40
0.0413385826757025
  0
CIRCLE
  5
78
330
74
100
AcDbEntity
  8
0
  6
Continuous
 62
   179
370
    15
100
AcDbCircle
 10
2.7299250226
 20
0.1181102362
 30
0.0
 40
0.0413385826771653
  0
CIRCLE
  5
79
330
74
100
AcDbEntity
  8
0
  6
Continuous
 62
   179
370
    15
100
AcDbCircle
 10
2.4937045501
 20
0.3543307087
 30
0.0
 40
0.0413385826771653
  0
CIRCLE
  5
7A
330
74
100
AcDbEntity
  8
0
  6
Continuous
 62
   179
370
    15
100
AcDbCircle
 10
2.7299250226
 20
0.5905511811
 30
0.0
 40
0.0413385826771653
  0
CIRCLE
  5
7B
330
74
100
AcDbEntity
  8
0
  6
Continuous
 62
   179
370
    15
100
AcDbCircle
 10
2.966145495
 20
0.3543307087
 30
0.0
 40
0.0413385826771648
  0
CIRCLE
  5
7C
330
74
100
AcDbEntity
  8
0
  6
Continuous
 62
   179
370
    15
100
AcDbCircle
 10
2.7299250226
 20
2.7754163105
 30
0.0
 40
0.0413385826757033
  0
CIRCLE
  5
7D
330
74
100
AcDbEntity
  8
0
  6
Continuous
 62
   179
370
    15
100
AcDbCircle
 10
2.7299250226
 20
3.011636783
 30
0.0
 40
0.0413385826771657
  0
CIRCLE
  5
7E
330
74
100
AcDbEntity
  8
0
  6
Continuous
 62
   179
370
    15
100
AcDbCircle
 10
2.4937045501
 20
2.7754163105
 30
0.0
 40
0.0413385826771657
  0
CIRCLE
  5
7F
330
74
100
AcDbEntity
  8
0
  6
Continuous
 62
   179
370
    15
100
AcDbCircle
 10
2.7299250226
 20
2.5391958381
 30
0.0
 40
0.0413385826771648
  0
CIRCLE
  5
80
330
74
100
AcDbEntity
  8
0
  6
Continuous
 62
   179
370
    15
100
AcDbCircle
 10
2.966145495
 20
2.7754163105
 30
0.0
 40
0.0413385826771644
  0
ARC
  5
81
330
74
100
AcDbEntity
  8
0
  6
Continuous
 62
   179
370
    15
100
AcDbCircle
 10
1.1023622047
 20
0.8758971316
 30
0.0
 40
0.0787401574803149
100
AcDbArc
 50
0.0
 51
90.0
  0
ARC
  5
82
330
74
100
AcDbEntity
  8
0
  6
Continuous
 62
   179
370
    15
100
AcDbCircle
 10
0.9779191558
 20
0.4885301904
 30
0.0
 40
0.2032819052229752
100
AcDbArc
 50
268.2238654505
 51
358.2144923369
  0
ARC
  5
83
330
74
100
AcDbEntity
  8
0
  6
Continuous
 62
   179
370
    15
100
AcDbCircle
 10
0.1968503937
 20
0.4821963442
 30
0.0
 40
0.1968503937007874
100
AcDbArc
 50
180.0
 51
270.0
  0
ARC
  5
84
330
74
100
AcDbEntity
  8
0
  6
Continuous
 62
   179
370
    15
100
AcDbCircle
 10
0.1968503937
 20
2.647550675
 30
0.0
 40
0.1968503937007874
100
AcDbArc
 50
90.0
 51
180.0
  0
ARC
  5
85
330
74
100
AcDbEntity
  8
0
  6
Continuous
 62
   179
370
    15
100
AcDbCircle
 10
0.9775704173
 20
2.640845709
 30
0.0
 40
0.2036423560610287
100
AcDbArc
 50
1.8868161941
 51
91.6748260185
  0
ARC
  5
86
330
74
100
AcDbEntity
  8
0
  6
Continuous
 62
   179
370
    15
100
AcDbCircle
 10
1.1023622047
 20
2.2538498876
 30
0.0
 40
0.0787401574803153
100
AcDbArc
 50
270.0
 51
0.0
  0
ARC
  5
87
330
74
100
AcDbEntity
  8
0
  6
Continuous
 62
   179
370
    15
100
AcDbCircle
 10
2.7299250226
 20
2.7754163105
 30
0.0
 40
0.3543307086614176
100
AcDbArc
 50
0.0
 51
180.0
  0
ARC
  5
88
330
74
100
AcDbEntity
  8
0
  6
Continuous
 62
   179
370
    15
100
AcDbCircle
 10
2.7299250226
 20
0.3543307087
 30
0.0
 40
0.3543307086614176
100
AcDbArc
 50
180.0
 51
0.0
  0
LINE
  5
89
330
74
100
AcDbEntity
  8
0
  6
Continuous
 62
   179
370
    15
100
AcDbLine
 10
2.3755943139
 20
1.0727475253
 30
0.0
 11
0.9718126097
 21
1.0727475253
 31
0.0
  0
LINE
  5
8A
330
74
100
AcDbEntity
  8
0
  6
Continuous
 62
   179
370
    15
100
AcDbLine
 10
0.9718126097
 20
1.0727475253
 30
0.0
 11
0.9718126097
 21
0.9546372891
 31
0.0
  0
LINE
  5
8B
330
74
100
AcDbEntity
  8
0
  6
Continuous
 62
   179
370
    15
100
AcDbLine
 10
0.9718126097
 20
0.9546372891
 30
0.0
 11
1.1023622047
 21
0.9546372891
 31
0.0
  0
LINE
  5
8C
330
74
100
AcDbEntity
  8
0
  6
Continuous
 62
   179
370
    15
100
AcDbLine
 10
1.1811023622
 20
0.4821963442
 30
0.0
 11
1.1811023622
 21
0.8758971316
 31
0.0
  0
LINE
  5
8D
330
74
100
AcDbEntity
  8
0
  6
Continuous
 62
   179
370
    15
100
AcDbLine
 10
0.1968503937
 20
0.2853459505
 30
0.0
 11
0.9716185487
 21
0.2853459505
 31
0.0
  0
LINE
  5
8E
330
74
100
AcDbEntity
  8
0
  6
Continuous
 62
   179
370
    15
100
AcDbLine
 10
0.0
 20
0.4821963442
 30
0.0
 11
0.0
 21
2.647550675
 31
0.0
  0
LINE
  5
8F
330
74
100
AcDbEntity
  8
0
  6
Continuous
 62
   179
370
    15
100
AcDbLine
 10
0.1968503937
 20
2.8444010687
 30
0.0
 11
0.9716185487
 21
2.8444010687
 31
0.0
  0
LINE
  5
90
330
74
100
AcDbEntity
  8
0
  6
Continuous
 62
   179
370
    15
100
AcDbLine
 10
1.1811023622
 20
2.2538498876
 30
0.0
 11
1.1811023622
 21
2.647550675
 31
0.0
  0
LINE
  5
91
330
74
100
AcDbEntity
  8
0
  6
Continuous
 62
   179
370
    15
100
AcDbLine
 10
1.1023622047
 20
2.1751097301
 30
0.0
 11
0.9718126097
 21
2.1751097301
 31
0.0
  0
LINE
  5
92
330
74
100
AcDbEntity
  8
0
  6
Continuous
 62
   179
370
    15
100
AcDbLine
 10
0.9718126097
 20
2.1751097301
 30
0.0
 11
0.9718126097
 21
2.0569994939
 31
0.0
  0
LINE
  5
93
330
74
100
AcDbEntity
  8
0
  6
Continuous
 62
   179
370
    15
100
AcDbLine
 10
0.9718126097
 20
2.0569994939
 30
0.0
 11
2.3755943139
 21
2.0569994939
 31
0.0
  0
LINE
  5
94
330
74
100
AcDbEntity
  8
0
  6
Continuous
 62
   179
370
    15
100
AcDbLine
 10
2.3755943139
 20
2.7754163105
 30
0.0
 11
2.3755943139
 21
2.0569994939
 31
0.0
  0
LINE
  5
95
330
74
100
AcDbEntity
  8
0
  6
Continuous
 62
   179
370
    15
100
AcDbLine
 10
3.0842557312
 20
2.7754163105
 30
0.0
 11
3.0842557312
 21
0.3543307087
 31
0.0
  0
LINE
  5
96
330
74
100
AcDbEntity
  8
0
  6
Continuous
 62
   179
370
    15
100
AcDbLine
 10
2.3755943139
 20
1.0727475253
 30
0.0
 11
2.3755943139
 21
0.3543307087
 31
0.0
  0
ENDBLK
  5
76
330
74
100
AcDbEntity
  8
0
100
AcDbBlockEnd
  0
BLOCK
  5
98
330
97
100
AcDbEntity
  8
0
100
AcDbBlockBegin
  2
module_v5_pt2_decoupe
 70
     0
 10
0.0
 20
0.0
 30
0.0
  3
module_v5_pt2_decoupe
  1

  0
CIRCLE
  5
9A
330
97
100
AcDbEntity
  8
0
  6
Continuous
 62
   179
370
    15
100
AcDbCircle
 10
3.0595428732
 20
1.6894641331
 30
0.0
 40
0.061023622047244
  0
CIRCLE
  5
9B
330
97
100
AcDbEntity
  8
0
  6
Continuous
 62
   179
370
    15
100
AcDbCircle
 10
3.5319838181
 20
1.6894641331
 30
0.0
 40
0.0610236220472444
  0
CIRCLE
  5
9C
330
97
100
AcDbEntity
  8
0
  6
Continuous
 62
   179
370
    15
100
AcDbCircle
 10
3.0595428732
 20
0.6727405913
 30
0.0
 40
0.0610236220472444
  0
CIRCLE
  5
9D
330
97
100
AcDbEntity
  8
0
  6
Continuous
 62
   179
370
    15
100
AcDbCircle
 10
3.5319838181
 20
0.6727405913
 30
0.0
 40
0.0610236220472435
  0
CIRCLE
  5
9E
330
97
100
AcDbEntity
  8
0
  6
Continuous
 62
   179
370
    15
100
AcDbCircle
 10
2.941432637
 20
1.1811023622
 30
0.0
 40
0.082677165354331
  0
CIRCLE
  5
9F
330
97
100
AcDbEntity
  8
0
  6
Continuous
 62
   179
370
    15
100
AcDbCircle
 10
3.6500940543
 20
1.1811023622
 30
0.0
 40
0.082677165354331
  0
ARC
  5
A0
330
97
100
AcDbEntity
  8
0
  6
Continuous
 62
   179
370
    15
100
AcDbCircle
 10
2.7445822433
 20
1.9571806685
 30
0.0
 40
0.0787401574803153
100
AcDbArc
 50
90.0
 51
180.0
  0
ARC
  5
A1
330
97
100
AcDbEntity
  8
0
  6
Continuous
 62
   179
370
    15
100
AcDbCircle
 10
3.0677598871
 20
1.7012751567
 30
0.0
 40
0.0984251968507921
100
AcDbArc
 50
23.578178478
 51
90.0
  0
ARC
  5
A2
330
97
100
AcDbEntity
  8
0
  6
Continuous
 62
   179
370
    15
100
AcDbCircle
 10
3.5237668042
 20
1.7012751567
 30
0.0
 40
0.0984251968507921
100
AcDbArc
 50
90.0
 51
156.421821522
  0
ARC
  5
A3
330
97
100
AcDbEntity
  8
0
  6
Continuous
 62
   179
370
    15
100
AcDbCircle
 10
3.846944448
 20
1.9571806685
 30
0.0
 40
0.0787401574803153
100
AcDbArc
 50
0.0
 51
90.0
  0
ARC
  5
A4
330
97
100
AcDbEntity
  8
0
  6
Continuous
 62
   179
370
    15
100
AcDbCircle
 10
3.846944448
 20
0.4050240559
 30
0.0
 40
0.0787401574803153
100
AcDbArc
 50
270.0
 51
0.0
  0
ARC
  5
A5
330
97
100
AcDbEntity
  8
0
  6
Continuous
 62
   179
370
    15
100
AcDbCircle
 10
3.5237668042
 20
0.6609295677
 30
0.0
 40
0.0984251968507921
100
AcDbArc
 50
203.578178478
 51
270.0
  0
ARC
  5
A6
330
97
100
AcDbEntity
  8
0
  6
Continuous
 62
   179
370
    15
100
AcDbCircle
 10
3.0677598871
 20
0.6609295677
 30
0.0
 40
0.0984251968507921
100
AcDbArc
 50
270.0
 51
336.421821522
  0
ARC
  5
A7
330
97
100
AcDbEntity
  8
0
  6
Continuous
 62
   179
370
    15
100
AcDbCircle
 10
2.7445822433
 20
0.4050240559
 30
0.0
 40
0.0787401574803149
100
AcDbArc
 50
180.0
 51
270.0
  0
ARC
  5
A8
330
97
100
AcDbEntity
  8
0
  6
Continuous
 62
   179
370
    15
100
AcDbCircle
 10
1.7716535433
 20
0.7086614173
 30
0.0
 40
0.1968503937007874
100
AcDbArc
 50
90.0
 51
180.0
  0
ARC
  5
A9
330
97
100
AcDbEntity
  8
0
  6
Continuous
 62
   179
370
    15
100
AcDbCircle
 10
1.3779527559
 20
0.1968503937
 30
0.0
 40
0.1968503937007874
100
AcDbArc
 50
270.0
 51
0.0
  0
ARC
  5
AA
330
97
100
AcDbEntity
  8
0
  6
Continuous
 62
   179
370
    15
100
AcDbCircle
 10
0.1968503937
 20
0.1968503937
 30
0.0
 40
0.1968503937007874
100
AcDbArc
 50
180.0
 51
270.0
  0
ARC
  5
AB
330
97
100
AcDbEntity
  8
0
  6
Continuous
 62
   179
370
    15
100
AcDbCircle
 10
0.1968503937
 20
0.4527559055
 30
0.0
 40
0.1968503937007874
100
AcDbArc
 50
90.0
 51
180.0
  0
ARC
  5
AC
330
97
100
AcDbEntity
  8
0
  6
Continuous
 62
   179
370
    15
100
AcDbCircle
 10
0.8661417323
 20
0.7677165354
 30
0.0
 40
0.1181102362204726
100
AcDbArc
 50
270.0
 51
0.0
  0
ARC
  5
AD
330
97
100
AcDbEntity
  8
0
  6
Continuous
 62
   179
370
    15
100
AcDbCircle
 10
0.8661417323
 20
1.594488189
 30
0.0
 40
0.1181102362204727
100
AcDbArc
 50
0.0
 51
90.0
  0
ARC
  5
AE
330
97
100
AcDbEntity
  8
0
  6
Continuous
 62
   179
370
    15
100
AcDbCircle
 10
0.1968503937
 20
1.9094488189
 30
0.0
 40
0.1968503937007873
100
AcDbArc
 50
180.0
 51
270.0
  0
ARC
  5
AF
330
97
100
AcDbEntity
  8
0
  6
Continuous
 62
   179
370
    15
100
AcDbCircle
 10
0.1968503937
 20
2.1653543307
 30
0.0
 40
0.1968503937007871
100
AcDbArc
 50
90.0
 51
180.0
  0
ARC
  5
B0
330
97
100
AcDbEntity
  8
0
  6
Continuous
 62
   179
370
    15
100
AcDbCircle
 10
1.3779527559
 20
2.1653543307
 30
0.0
 40
0.1968503937007873
100
AcDbArc
 50
0.0
 51
90.0
  0
ARC
  5
B1
330
97
100
AcDbEntity
  8
0
  6
Continuous
 62
   179
370
    15
100
AcDbCircle
 10
1.7716535433
 20
1.6535433071
 30
0.0
 40
0.1968503937007875
100
AcDbArc
 50
180.0
 51
270.0
  0
LINE
  5
B2
330
97
100
AcDbEntity
  8
0
  6
Continuous
 62
   179
370
    15
100
AcDbLine
 10
2.5871019284
 20
1.3582677165
 30
0.0
 11
2.5871019284
 21
1.4566929134
 31
0.0
  0
LINE
  5
B3
330
97
100
AcDbEntity
  8
0
  6
Continuous
 62
   179
370
    15
100
AcDbLine
 10
2.6658420858
 20
1.3582677165
 30
0.0
 11
2.5871019284
 21
1.3582677165
 31
0.0
  0
LINE
  5
B4
330
97
100
AcDbEntity
  8
0
  6
Continuous
 62
   179
370
    15
100
AcDbLine
 10
2.6658420858
 20
1.9571806685
 30
0.0
 11
2.6658420858
 21
1.3582677165
 31
0.0
  0
LINE
  5
B5
330
97
100
AcDbEntity
  8
0
  6
Continuous
 62
   179
370
    15
100
AcDbLine
 10
2.7445822433
 20
2.035920826
 30
0.0
 11
2.8233224008
 21
2.035920826
 31
0.0
  0
LINE
  5
B6
330
97
100
AcDbEntity
  8
0
  6
Continuous
 62
   179
370
    15
100
AcDbLine
 10
2.8233224008
 20
2.035920826
 30
0.0
 11
2.8233224008
 21
1.7997003536
 31
0.0
  0
LINE
  5
B7
330
97
100
AcDbEntity
  8
0
  6
Continuous
 62
   179
370
    15
100
AcDbLine
 10
3.0677598871
 20
1.7997003536
 30
0.0
 11
2.8233224008
 21
1.7997003536
 31
0.0
  0
LINE
  5
B8
330
97
100
AcDbEntity
  8
0
  6
Continuous
 62
   179
370
    15
100
AcDbLine
 10
3.4335586213
 20
1.7406452354
 30
0.0
 11
3.1579680701
 21
1.7406452354
 31
0.0
  0
LINE
  5
B9
330
97
100
AcDbEntity
  8
0
  6
Continuous
 62
   179
370
    15
100
AcDbLine
 10
3.7682042906
 20
1.7997003536
 30
0.0
 11
3.5237668042
 21
1.7997003536
 31
0.0
  0
LINE
  5
BA
330
97
100
AcDbEntity
  8
0
  6
Continuous
 62
   179
370
    15
100
AcDbLine
 10
3.7682042906
 20
2.035920826
 30
0.0
 11
3.7682042906
 21
1.7997003536
 31
0.0
  0
LINE
  5
BB
330
97
100
AcDbEntity
  8
0
  6
Continuous
 62
   179
370
    15
100
AcDbLine
 10
3.7682042906
 20
2.035920826
 30
0.0
 11
3.846944448
 21
2.035920826
 31
0.0
  0
LINE
  5
BC
330
97
100
AcDbEntity
  8
0
  6
Continuous
 62
   179
370
    15
100
AcDbLine
 10
3.9256846055
 20
1.9571806685
 30
0.0
 11
3.9256846055
 21
0.4050240559
 31
0.0
  0
LINE
  5
BD
330
97
100
AcDbEntity
  8
0
  6
Continuous
 62
   179
370
    15
100
AcDbLine
 10
3.846944448
 20
0.3262838984
 30
0.0
 11
3.7682042906
 21
0.3262838984
 31
0.0
  0
LINE
  5
BE
330
97
100
AcDbEntity
  8
0
  6
Continuous
 62
   179
370
    15
100
AcDbLine
 10
3.7682042906
 20
0.3262838984
 30
0.0
 11
3.7682042906
 21
0.5625043709
 31
0.0
  0
LINE
  5
BF
330
97
100
AcDbEntity
  8
0
  6
Continuous
 62
   179
370
    15
100
AcDbLine
 10
3.7682042906
 20
0.5625043709
 30
0.0
 11
3.5237668042
 21
0.5625043709
 31
0.0
  0
LINE
  5
C0
330
97
100
AcDbEntity
  8
0
  6
Continuous
 62
   179
370
    15
100
AcDbLine
 10
3.1579680701
 20
0.621559489
 30
0.0
 11
3.4335586213
 21
0.621559489
 31
0.0
  0
LINE
  5
C1
330
97
100
AcDbEntity
  8
0
  6
Continuous
 62
   179
370
    15
100
AcDbLine
 10
3.0677598871
 20
0.5625043709
 30
0.0
 11
2.8233224008
 21
0.5625043709
 31
0.0
  0
LINE
  5
C2
330
97
100
AcDbEntity
  8
0
  6
Continuous
 62
   179
370
    15
100
AcDbLine
 10
2.8233224008
 20
0.3262838984
 30
0.0
 11
2.8233224008
 21
0.5625043709
 31
0.0
  0
LINE
  5
C3
330
97
100
AcDbEntity
  8
0
  6
Continuous
 62
   179
370
    15
100
AcDbLine
 10
2.8233224008
 20
0.3262838984
 30
0.0
 11
2.7445822433
 21
0.3262838984
 31
0.0
  0
LINE
  5
C4
330
97
100
AcDbEntity
  8
0
  6
Continuous
 62
   179
370
    15
100
AcDbLine
 10
2.6658420858
 20
1.0039370079
 30
0.0
 11
2.6658420858
 21
0.4050240559
 31
0.0
  0
LINE
  5
C5
330
97
100
AcDbEntity
  8
0
  6
Continuous
 62
   179
370
    15
100
AcDbLine
 10
2.5871019284
 20
1.0039370079
 30
0.0
 11
2.6658420858
 21
1.0039370079
 31
0.0
  0
LINE
  5
C6
330
97
100
AcDbEntity
  8
0
  6
Continuous
 62
   179
370
    15
100
AcDbLine
 10
2.5871019284
 20
0.905511811
 30
0.0
 11
2.5871019284
 21
1.0039370079
 31
0.0
  0
LINE
  5
C7
330
97
100
AcDbEntity
  8
0
  6
Continuous
 62
   179
370
    15
100
AcDbLine
 10
1.7716535433
 20
0.905511811
 30
0.0
 11
2.5871019284
 21
0.905511811
 31
0.0
  0
LINE
  5
C8
330
97
100
AcDbEntity
  8
0
  6
Continuous
 62
   179
370
    15
100
AcDbLine
 10
1.5748031496
 20
0.7086614173
 30
0.0
 11
1.5748031496
 21
0.1968503937
 31
0.0
  0
LINE
  5
C9
330
97
100
AcDbEntity
  8
0
  6
Continuous
 62
   179
370
    15
100
AcDbLine
 10
1.3779527559
 20
0.0
 30
0.0
 11
0.1968503937
 21
0.0
 31
0.0
  0
LINE
  5
CA
330
97
100
AcDbEntity
  8
0
  6
Continuous
 62
   179
370
    15
100
AcDbLine
 10
0.0
 20
0.1968503937
 30
0.0
 11
0.0
 21
0.4527559055
 31
0.0
  0
LINE
  5
CB
330
97
100
AcDbEntity
  8
0
  6
Continuous
 62
   179
370
    15
100
AcDbLine
 10
0.1968503937
 20
0.6496062992
 30
0.0
 11
0.8661417323
 21
0.6496062992
 31
0.0
  0
LINE
  5
CC
330
97
100
AcDbEntity
  8
0
  6
Continuous
 62
   179
370
    15
100
AcDbLine
 10
0.9842519685
 20
0.7677165354
 30
0.0
 11
0.9842519685
 21
1.594488189
 31
0.0
  0
LINE
  5
CD
330
97
100
AcDbEntity
  8
0
  6
Continuous
 62
   179
370
    15
100
AcDbLine
 10
0.8661417323
 20
1.7125984252
 30
0.0
 11
0.1968503937
 21
1.7125984252
 31
0.0
  0
LINE
  5
CE
330
97
100
AcDbEntity
  8
0
  6
Continuous
 62
   179
370
    15
100
AcDbLine
 10
0.0
 20
1.9094488189
 30
0.0
 11
0.0
 21
2.1653543307
 31
0.0
  0
LINE
  5
CF
330
97
100
AcDbEntity
  8
0
  6
Continuous
 62
   179
370
    15
100
AcDbLine
 10
0.1968503937
 20
2.3622047244
 30
0.0
 11
1.3779527559
 21
2.3622047244
 31
0.0
  0
LINE
  5
D0
330
97
100
AcDbEntity
  8
0
  6
Continuous
 62
   179
370
    15
100
AcDbLine
 10
1.5748031496
 20
2.1653543307
 30
0.0
 11
1.5748031496
 21
1.6535433071
 31
0.0
  0
LINE
  5
D1
330
97
100
AcDbEntity
  8
0
  6
Continuous
 62
   179
370
    15
100
AcDbLine
 10
2.5871019284
 20
1.4566929134
 30
0.0
 11
1.7716535433
 21
1.4566929134
 31
0.0
  0
ENDBLK
  5
99
330
97
100
AcDbEntity
  8
0
100
AcDbBlockEnd
  0
ENDSEC
  0
SECTION
  2
ENTITIES
  0
INSERT
  5
D2
330
1F
100
AcDbEntity
  8
0
  6
Continuous
 62
     7
100
AcDbBlockReference
  2
module_v5_pt1_decoupe
 10
1.1487153399
 20
4.9224241553
 30
0.0
  0
INSERT
  5
D3
330
1F
100
AcDbEntity
  8
0
  6
Continuous
 62
     7
100
AcDbBlockReference
  2
module_v5_pt2_decoupe
 10
0.5835909344
 20
1.6873366733
 30
0.0
  0
ENDSEC
  0
SECTION
  2
OBJECTS
  0
DICTIONARY
  5
C
330
0
100
AcDbDictionary
281
     1
  3
ACAD_GROUP
350
D
  3
ACAD_LAYOUT
350
1A
  3
ACAD_MLINESTYLE
350
17
  3
ACAD_PLOTSETTINGS
350
19
  3
ACAD_PLOTSTYLENAME
350
E
  3
ACAD_SCALELIST
350
47
  0
DICTIONARY
  5
D
102
{ACAD_REACTORS
330
C
102
}
330
C
100
AcDbDictionary
281
     1
  0
DICTIONARY
  5
1A
102
{ACAD_REACTORS
330
C
102
}
330
C
100
AcDbDictionary
281
     1
  3
Layout1
350
1E
  3
Layout2
350
26
  3
Model
350
22
  0
DICTIONARY
  5
17
102
{ACAD_REACTORS
330
C
102
}
330
C
100
AcDbDictionary
281
     1
  3
Standard
350
18
  0
DICTIONARY
  5
19
102
{ACAD_REACTORS
330
C
102
}
330
C
100
AcDbDictionary
281
     1
  0
ACDBDICTIONARYWDFLT
  5
E
102
{ACAD_REACTORS
330
C
102
}
330
C
100
AcDbDictionary
281
     1
  3
Normal
350
F
100
AcDbDictionaryWithDefault
340
F
  0
DICTIONARY
  5
47
102
{ACAD_REACTORS
330
C
102
}
330
C
100
AcDbDictionary
281
     1
  3
A0
350
48
  3
A1
350
49
  3
A2
350
4A
  3
A3
350
4B
  3
A4
350
4C
  3
A5
350
4D
  3
A6
350
4E
  3
A7
350
4F
  3
A8
350
50
  3
A9
350
51
  3
B0
350
52
  3
B1
350
53
  3
B2
350
54
  3
B3
350
55
  3
B4
350
56
  3
B5
350
57
  3
B6
350
58
  3
B7
350
59
  3
B8
350
5A
  3
B9
350
5B
  3
C0
350
5C
  3
C1
350
5D
  3
C2
350
5E
  3
C3
350
5F
  3
C4
350
60
  3
C5
350
61
  3
C6
350
62
  3
C7
350
63
  3
C8
350
64
  3
C9
350
65
  3
D0
350
66
  3
D1
350
67
  3
D2
350
68
  0
LAYOUT
  5
1E
102
{ACAD_REACTORS
330
1A
102
}
330
1A
100
AcDbPlotSettings
  1

  2
none_device
  4

  6

 40
0.0
 41
0.0
 42
0.0
 43
0.0
 44
0.0
 45
0.0
 46
0.0
 47
0.0
 48
0.0
 49
0.0
140
0.0
141
0.0
142
1.0
143
1.0
 70
   688
 72
     0
 73
     0
 74
     5
  7

 75
    16
147
1.0
148
0.0
149
0.0
100
AcDbLayout
  1
Layout1
 70
     1
 71
     1
 10
0.0
 20
0.0
 11
12.0
 21
9.0
 12
0.0
 22
0.0
 32
0.0
 14
1.0000000000E+20
 24
1.0000000000E+20
 34
1.0000000000E+20
 15
-1.0000000000E+20
 25
-1.0000000000E+20
 35
-1.0000000000E+20
146
0.0
 13
0.0
 23
0.0
 33
0.0
 16
1.0
 26
0.0
 36
0.0
 17
0.0
 27
1.0
 37
0.0
 76
     0
330
1B
  0
LAYOUT
  5
26
102
{ACAD_REACTORS
330
1A
102
}
330
1A
100
AcDbPlotSettings
  1

  2
none_device
  4

  6

 40
0.0
 41
0.0
 42
0.0
 43
0.0
 44
0.0
 45
0.0
 46
0.0
 47
0.0
 48
0.0
 49
0.0
140
0.0
141
0.0
142
1.0
143
1.0
 70
   688
 72
     0
 73
     0
 74
     5
  7

 75
    16
147
1.0
148
0.0
149
0.0
100
AcDbLayout
  1
Layout2
 70
     1
 71
     2
 10
0.0
 20
0.0
 11
0.0
 21
0.0
 12
0.0
 22
0.0
 32
0.0
 14
0.0
 24
0.0
 34
0.0
 15
0.0
 25
0.0
 35
0.0
146
0.0
 13
0.0
 23
0.0
 33
0.0
 16
1.0
 26
0.0
 36
0.0
 17
0.0
 27
1.0
 37
0.0
 76
     0
330
23
  0
LAYOUT
  5
22
102
{ACAD_REACTORS
330
1A
102
}
330
1A
100
AcDbPlotSettings
  1

  2
none_device
  4
Letter_(8.50_x_11.00_Inches)
  6

 40
6.35
 41
6.35
 42
6.35000508
 43
6.35000508
 44
215.9
 45
279.4
 46
0.0
 47
0.0
 48
0.0
 49
0.0
140
0.0
141
0.0
142
1.0
143
1.0
 70
  1712
 72
     0
 73
     0
 74
     0
  7

 75
     0
147
1.0
148
0.0
149
0.0
100
AcDbLayout
  1
Model
 70
     1
 71
     0
 10
0.0
 20
0.0
 11
11.0
 21
8.5
 12
0.0
 22
0.0
 32
0.0
 14
0.0
 24
0.0
 34
0.0
 15
11.0
 25
8.5
 35
0.0
146
0.0
 13
0.0
 23
0.0
 33
0.0
 16
1.0
 26
0.0
 36
0.0
 17
0.0
 27
1.0
 37
0.0
 76
     0
330
1F
331
29
  0
MLINESTYLE
  5
18
102
{ACAD_REACTORS
330
17
102
}
330
17
100
AcDbMlineStyle
  2
Standard
 70
     0
  3

 62
   256
 51
90.0
 52
90.0
 71
     2
 49
0.5
 62
   256
  6
BYLAYER
 49
-0.5
 62
   256
  6
BYLAYER
  0
ACDBPLACEHOLDER
  5
F
102
{ACAD_REACTORS
330
E
102
}
330
E
  0
SCALE
  5
48
102
{ACAD_REACTORS
330
47
102
}
330
47
100
AcDbScale
 70
     0
300
1:1
140
1.0
141
1.0
290
     1
  0
SCALE
  5
49
102
{ACAD_REACTORS
330
47
102
}
330
47
100
AcDbScale
 70
     0
300
1:2
140
1.0
141
2.0
290
     0
  0
SCALE
  5
4A
102
{ACAD_REACTORS
330
47
102
}
330
47
100
AcDbScale
 70
     0
300
1:4
140
1.0
141
4.0
290
     0
  0
SCALE
  5
4B
102
{ACAD_REACTORS
330
47
102
}
330
47
100
AcDbScale
 70
     0
300
1:5
140
1.0
141
5.0
290
     0
  0
SCALE
  5
4C
102
{ACAD_REACTORS
330
47
102
}
330
47
100
AcDbScale
 70
     0
300
1:8
140
1.0
141
8.0
290
     0
  0
SCALE
  5
4D
102
{ACAD_REACTORS
330
47
102
}
330
47
100
AcDbScale
 70
     0
300
1:10
140
1.0
141
10.0
290
     0
  0
SCALE
  5
4E
102
{ACAD_REACTORS
330
47
102
}
330
47
100
AcDbScale
 70
     0
300
1:16
140
1.0
141
16.0
290
     0
  0
SCALE
  5
4F
102
{ACAD_REACTORS
330
47
102
}
330
47
100
AcDbScale
 70
     0
300
1:20
140
1.0
141
20.0
290
     0
  0
SCALE
  5
50
102
{ACAD_REACTORS
330
47
102
}
330
47
100
AcDbScale
 70
     0
300
1:30
140
1.0
141
30.0
290
     0
  0
SCALE
  5
51
102
{ACAD_REACTORS
330
47
102
}
330
47
100
AcDbScale
 70
     0
300
1:40
140
1.0
141
40.0
290
     0
  0
SCALE
  5
52
102
{ACAD_REACTORS
330
47
102
}
330
47
100
AcDbScale
 70
     0
300
1:50
140
1.0
141
50.0
290
     0
  0
SCALE
  5
53
102
{ACAD_REACTORS
330
47
102
}
330
47
100
AcDbScale
 70
     0
300
1:100
140
1.0
141
100.0
290
     0
  0
SCALE
  5
54
102
{ACAD_REACTORS
330
47
102
}
330
47
100
AcDbScale
 70
     0
300
2:1
140
2.0
141
1.0
290
     0
  0
SCALE
  5
55
102
{ACAD_REACTORS
330
47
102
}
330
47
100
AcDbScale
 70
     0
300
4:1
140
4.0
141
1.0
290
     0
  0
SCALE
  5
56
102
{ACAD_REACTORS
330
47
102
}
330
47
100
AcDbScale
 70
     0
300
8:1
140
8.0
141
1.0
290
     0
  0
SCALE
  5
57
102
{ACAD_REACTORS
330
47
102
}
330
47
100
AcDbScale
 70
     0
300
10:1
140
10.0
141
1.0
290
     0
  0
SCALE
  5
58
102
{ACAD_REACTORS
330
47
102
}
330
47
100
AcDbScale
 70
     0
300
100:1
140
100.0
141
1.0
290
     0
  0
SCALE
  5
59
102
{ACAD_REACTORS
330
47
102
}
330
47
100
AcDbScale
 70
     0
300
1/128" = 1'-0"
140
0.0078125
141
12.0
290
     0
  0
SCALE
  5
5A
102
{ACAD_REACTORS
330
47
102
}
330
47
100
AcDbScale
 70
     0
300
1/64" = 1'-0"
140
0.015625
141
12.0
290
     0
  0
SCALE
  5
5B
102
{ACAD_REACTORS
330
47
102
}
330
47
100
AcDbScale
 70
     0
300
1/32" = 1'-0"
140
0.03125
141
12.0
290
     0
  0
SCALE
  5
5C
102
{ACAD_REACTORS
330
47
102
}
330
47
100
AcDbScale
 70
     0
300
1/16" = 1'-0"
140
0.0625
141
12.0
290
     0
  0
SCALE
  5
5D
102
{ACAD_REACTORS
330
47
102
}
330
47
100
AcDbScale
 70
     0
300
3/32" = 1'-0"
140
0.09375
141
12.0
290
     0
  0
SCALE
  5
5E
102
{ACAD_REACTORS
330
47
102
}
330
47
100
AcDbScale
 70
     0
300
1/8" = 1'-0"
140
0.125
141
12.0
290
     0
  0
SCALE
  5
5F
102
{ACAD_REACTORS
330
47
102
}
330
47
100
AcDbScale
 70
     0
300
3/16" = 1'-0"
140
0.1875
141
12.0
290
     0
  0
SCALE
  5
60
102
{ACAD_REACTORS
330
47
102
}
330
47
100
AcDbScale
 70
     0
300
1/4" = 1'-0"
140
0.25
141
12.0
290
     0
  0
SCALE
  5
61
102
{ACAD_REACTORS
330
47
102
}
330
47
100
AcDbScale
 70
     0
300
3/8" = 1'-0"
140
0.375
141
12.0
290
     0
  0
SCALE
  5
62
102
{ACAD_REACTORS
330
47
102
}
330
47
100
AcDbScale
 70
     0
300
1/2" = 1'-0"
140
0.5
141
12.0
290
     0
  0
SCALE
  5
63
102
{ACAD_REACTORS
330
47
102
}
330
47
100
AcDbScale
 70
     0
300
3/4" = 1'-0"
140
0.75
141
12.0
290
     0
  0
SCALE
  5
64
102
{ACAD_REACTORS
330
47
102
}
330
47
100
AcDbScale
 70
     0
300
1" = 1'-0"
140
1.0
141
12.0
290
     0
  0
SCALE
  5
65
102
{ACAD_REACTORS
330
47
102
}
330
47
100
AcDbScale
 70
     0
300
1-1/2" = 1'-0"
140
1.5
141
12.0
290
     0
  0
SCALE
  5
66
102
{ACAD_REACTORS
330
47
102
}
330
47
100
AcDbScale
 70
     0
300
3" = 1'-0"
140
3.0
141
12.0
290
     0
  0
SCALE
  5
67
102
{ACAD_REACTORS
330
47
102
}
330
47
100
AcDbScale
 70
     0
300
6" = 1'-0"
140
6.0
141
12.0
290
     0
  0
SCALE
  5
68
102
{ACAD_REACTORS
330
47
102
}
330
47
100
AcDbScale
 70
     0
300
1'-0" = 1'-0"
140
12.0
141
12.0
290
     0
  0
ENDSEC
  0
EOF
